<?xml version="1.0" encoding="UTF-8" standalone="no"?>
<!-- Created with Inkscape (http://www.inkscape.org/) -->

<svg
   version="1.1"
   id="svg2"
   width="1319.1067"
   height="432.50668"
   viewBox="0 0 1319.1067 432.50668"
   sodipodi:docname="google_logo_2015.eps"
   xmlns:inkscape="http://www.inkscape.org/namespaces/inkscape"
   xmlns:sodipodi="http://sodipodi.sourceforge.net/DTD/sodipodi-0.dtd"
   xmlns="http://www.w3.org/2000/svg"
   xmlns:svg="http://www.w3.org/2000/svg">
  <defs
     id="defs6" />
  <sodipodi:namedview
     id="namedview4"
     pagecolor="#143C3C"
     bordercolor="#143C3C"
     borderopacity="0.25"
     inkscape:showpageshadow="2"
     inkscape:pageopacity="0.0"
     inkscape:pagecheckerboard="0"
     inkscape:deskcolor="#143C3C" />
  <g
     id="g8"
     inkscape:groupmode="layer"
     inkscape:label="ink_ext_XXXXXX"
     transform="matrix(1.3333333,0,0,-1.3333333,0,432.50667)">
    <g
       id="g10"
       transform="scale(0.1)">
      <path
         d="M 2432.34,2098.25 H 1267.92 v -342.57 h 828.73 c -40.44,-480.36 -440.1,-685.22 -817.34,-685.22 -482.646,0 -903.81,379.75 -903.81,912.01 0,518.5 401.48,917.82 904.87,917.82 388.38,0 617.23,-247.58 617.23,-247.58 l 239.85,248.38 c 0,0 -307.86,342.73 -869.34,342.73 C 553.125,3243.84 0,2640.39 0,1988.59 0,1349.9 520.309,727.117 1286.33,727.117 c 673.73,0 1166.9,461.523 1166.9,1144.023 0,143.98 -20.91,227.2 -20.91,227.2 l 0.02,-0.09"
         style="fill:#143C3C;fill-opacity:1;fill-rule:nonzero;stroke:none"
         id="path12" />
      <path
         d="m 3418.01,2346.34 c -473.69,0 -813.17,-370.34 -813.17,-802.25 0,-438.29 329.28,-815.508 818.73,-815.508 443.09,0 806.1,338.658 806.1,806.098 0,535.74 -422.26,811.66 -811.66,811.66 z m 4.71,-317.73 c 232.94,0 453.69,-188.33 453.69,-491.8 0,-297.02 -219.81,-490.72 -454.76,-490.72 -258.16,0 -461.82,206.76 -461.82,493.08 0,280.18 201.13,489.44 462.89,489.44 v 0"
         style="fill:#143C3C;fill-opacity:1;fill-rule:nonzero;stroke:none"
         id="path14" />
      <path
         d="m 5176.53,2346.34 c -473.69,0 -813.17,-370.34 -813.17,-802.25 0,-438.29 329.27,-815.508 818.73,-815.508 443.09,0 806.1,338.658 806.1,806.098 0,535.74 -422.26,811.66 -811.66,811.66 z m 4.71,-317.73 c 232.94,0 453.68,-188.33 453.68,-491.8 0,-297.02 -219.8,-490.72 -454.75,-490.72 -258.16,0 -461.82,206.76 -461.82,493.08 0,280.18 201.13,489.44 462.89,489.44 v 0"
         style="fill:#143C3C;fill-opacity:1;fill-rule:nonzero;stroke:none"
         id="path16" />
      <path
         d="m 6911.18,2345.48 c -434.79,0 -776.55,-380.81 -776.55,-808.23 0,-486.87 396.21,-809.738 769.05,-809.738 230.54,0 353.12,91.511 443.62,196.551 V 764.559 c 0,-279.071 -169.44,-446.188 -425.2,-446.188 -247.07,0 -371.01,183.711 -414.07,287.965 L 6197.16,476.375 C 6307.44,243.184 6529.45,0 6924.68,0 c 432.29,0 761.77,272.289 761.77,843.348 V 2316.85 h -339.13 v -157.02 c -104.28,112.37 -246.89,185.63 -436.14,185.63 z m 31.47,-317.08 c 213.17,0 432.06,-182.02 432.06,-492.86 0,-315.96 -218.43,-490.09 -436.77,-490.09 -231.8,0 -447.48,188.21 -447.48,487.09 0,310.54 224,495.86 452.18,495.86 h 0.01"
         style="fill:#143C3C;fill-opacity:1;fill-rule:nonzero;stroke:none"
         id="path18" />
      <path
         d="m 9164.37,2347.41 c -410.14,0 -754.5,-326.31 -754.5,-807.8 0,-509.5 383.84,-811.661 793.89,-811.661 342.24,0 552.28,187.227 677.64,354.981 l -279.62,186.05 c -72.56,-112.61 -193.86,-222.66 -396.31,-222.66 -227.39,0 -331.95,124.52 -396.73,245.14 l 1084.6,450.04 -56.3,131.89 c -104.78,258.28 -349.19,473.97 -672.63,473.97 z m 14.13,-311.09 c 147.78,0 254.14,-78.57 299.31,-172.78 L 8753.5,1560.8 c -31.23,234.38 190.82,475.52 425,475.52 v 0"
         style="fill:#143C3C;fill-opacity:1;fill-rule:nonzero;stroke:none"
         id="path20" />
      <path
         d="m 7912.79,775.969 h 332.22 V 3160.17 H 7912.79 V 775.969"
         style="fill:#143C3C;fill-opacity:1;fill-rule:nonzero;stroke:none"
         id="path22" />
    </g>
  </g>
</svg>
